Coordinates
version=1
nRows=9
nColumns=24
inDegrees=yes

Units are S.I. units (second, meters, Newtons, ...)
Angles are in degrees.

endheader
time	pelvis_tilt	pelvis_list	pelvis_rotation	pelvis_tx	pelvis_ty	pelvis_tz	hip_flexion_r	hip_adduction_r	hip_rotation_r	knee_angle_r	ankle_angle_r	subtalar_angle_r	mtp_angle_r	hip_flexion_l	hip_adduction_l	hip_rotation_l	knee_angle_l	ankle_angle_l	subtalar_angle_l	mtp_angle_l	lumbar_extension	lumbar_bending	lumbar_rotation
      3.94000000	     -8.34277103	     -7.59814738	      8.48878694	     -0.18766651	     -0.03975251	      0.67331713	     31.12692357	      4.48204366	     -1.15162445	    -34.37045257	      3.46013371	     -2.65603183	     14.14903343	     13.25636315	     -6.67322025	      5.56297365	    -60.12531901	    -29.16360561	      7.11796753	     34.69229908	      8.60884299	     13.80585823	    -11.69574091
      3.94500000	     -8.25226775	     -7.66750287	      8.38400814	     -0.18044223	     -0.03850715	      0.67344918	     30.38868709	      4.78170528	     -0.92377763	    -34.04091411	      3.75512876	     -2.90387010	     13.72208242	     14.28231408	     -6.67757385	      5.30971636	    -61.48279066	    -28.11647068	      7.48983549	     35.85472885	      8.46125987	     13.94727698	    -11.36278264
      3.95000000	     -8.16055894	     -7.71561767	      8.28127490	     -0.17321882	     -0.03717866	      0.67358448	     29.61901901	      5.05514969	     -0.68751617	    -33.66600567	      4.04799094	     -3.12013346	     13.26198775	     15.29330963	     -6.66654259	      5.04924704	    -62.73755144	    -27.16841304	      7.74303558	     36.84152912	      8.31658433	     14.05837844	    -11.02921221
      3.95500000	     -8.07336006	     -7.76427239	      8.18790913	     -0.16595870	     -0.03576938	      0.67365897	     28.81312941	      5.31242770	     -0.44620416	    -33.22046998	      4.32062110	     -3.26870386	     12.88373856	     16.29904389	     -6.65004481	      4.79807310	    -63.89979006	    -26.32460800	      7.82596908	     37.50199422	      8.19327319	     14.16800478	    -10.67948536
      3.96000000	     -7.98991442	     -7.79304623	      8.08854668	     -0.15874961	     -0.03436467	      0.67386837	     28.00477029	      5.56109979	     -0.20323808	    -32.76392799	      4.57848327	     -3.51765139	     12.36188426	     17.30567108	     -6.63908583	      4.52653155	    -64.98512007	    -25.56985178	      7.84392678	     37.94181984	      8.06575729	     14.23102891	    -10.40670717
      3.96500000	     -7.90754587	     -7.82548284	      8.00608600	     -0.15150277	     -0.03292592	      0.67392641	     27.16003012	      5.77132424	      0.00954594	    -32.23823599	      4.83863299	     -3.58946531	     12.16126872	     18.30169854	     -6.61359229	      4.27436996	    -65.97722676	    -24.98334854	      7.61286579	     38.15629847	      7.96085746	     14.30821956	    -10.13897576
      3.97000000	     -7.84132455	     -7.85314875	      7.90715538	     -0.14419886	     -0.03150267	      0.67411979	     26.31253173	      6.01417620	      0.31491777	    -31.71763335	      5.20999550	     -3.72895920	     10.99021906	     19.29730268	     -6.59305763	      4.02906687	    -66.92506666	    -24.20848389	      7.45537526	     37.62503971	      7.88156584	     14.35630931	     -9.84123556
      3.97500000	     -7.79454141	     -7.86680429	      7.81948297	     -0.13692459	     -0.03006525	      0.67427495	     25.46721424	      6.21351044	      0.57265274	    -31.12357699	      5.34733296	     -4.03184363	     10.66091939	     20.29648398	     -6.55446080	      3.78364308	    -67.73157255	    -23.78324834	      6.96971799	     37.50115808	      7.82701770	     14.38604087	     -9.60236767
      3.98000000	     -7.74953792	     -7.87755600	      7.72209179	     -0.12963339	     -0.02864663	      0.67442382	     24.60150288	      6.41757866	      0.92007517	    -30.50695195	      5.53272626	     -4.26118224	     10.09840321	     21.28437500	     -6.50984607	      3.54627130	    -68.48700266	    -23.23771505	      6.49064167	     36.82717913	      7.77661869	     14.41297939	     -9.35246236
